<mxfile host="app.diagrams.net" modified="2021-09-02T15:43:07.478Z" agent="5.0 (Windows NT 10.0; Win64; x64) AppleWebKit/537.36 (KHTML, like Gecko) Chrome/92.0.4515.159 Safari/537.36" etag="kY1sbnnChoYU2vPDgJco" version="15.0.6" type="github">
  <diagram id="C5RBs43oDa-KdzZeNtuy" name="Page-1">
    <mxGraphModel dx="2249" dy="772" grid="1" gridSize="10" guides="1" tooltips="1" connect="1" arrows="1" fold="1" page="1" pageScale="1" pageWidth="827" pageHeight="1169" math="0" shadow="0">
      <root>
        <mxCell id="WIyWlLk6GJQsqaUBKTNV-0" />
        <mxCell id="WIyWlLk6GJQsqaUBKTNV-1" parent="WIyWlLk6GJQsqaUBKTNV-0" />
        <mxCell id="kiyUDrObePyUyIK6tPTi-2" value="" style="edgeStyle=orthogonalEdgeStyle;rounded=0;orthogonalLoop=1;jettySize=auto;html=1;" edge="1" parent="WIyWlLk6GJQsqaUBKTNV-1" source="kiyUDrObePyUyIK6tPTi-0" target="kiyUDrObePyUyIK6tPTi-1">
          <mxGeometry relative="1" as="geometry" />
        </mxCell>
        <mxCell id="kiyUDrObePyUyIK6tPTi-10" value="" style="edgeStyle=orthogonalEdgeStyle;rounded=0;orthogonalLoop=1;jettySize=auto;html=1;" edge="1" parent="WIyWlLk6GJQsqaUBKTNV-1" source="kiyUDrObePyUyIK6tPTi-0" target="kiyUDrObePyUyIK6tPTi-9">
          <mxGeometry relative="1" as="geometry" />
        </mxCell>
        <mxCell id="kiyUDrObePyUyIK6tPTi-0" value="TODO" style="ellipse;whiteSpace=wrap;html=1;" vertex="1" parent="WIyWlLk6GJQsqaUBKTNV-1">
          <mxGeometry x="270" y="310" width="120" height="80" as="geometry" />
        </mxCell>
        <mxCell id="kiyUDrObePyUyIK6tPTi-4" value="" style="edgeStyle=orthogonalEdgeStyle;rounded=0;orthogonalLoop=1;jettySize=auto;html=1;" edge="1" parent="WIyWlLk6GJQsqaUBKTNV-1" source="kiyUDrObePyUyIK6tPTi-1" target="kiyUDrObePyUyIK6tPTi-3">
          <mxGeometry relative="1" as="geometry" />
        </mxCell>
        <mxCell id="kiyUDrObePyUyIK6tPTi-6" value="" style="edgeStyle=orthogonalEdgeStyle;rounded=0;orthogonalLoop=1;jettySize=auto;html=1;" edge="1" parent="WIyWlLk6GJQsqaUBKTNV-1" source="kiyUDrObePyUyIK6tPTi-1" target="kiyUDrObePyUyIK6tPTi-5">
          <mxGeometry relative="1" as="geometry" />
        </mxCell>
        <mxCell id="kiyUDrObePyUyIK6tPTi-1" value="Studio picture" style="whiteSpace=wrap;html=1;" vertex="1" parent="WIyWlLk6GJQsqaUBKTNV-1">
          <mxGeometry x="470" y="320" width="120" height="60" as="geometry" />
        </mxCell>
        <mxCell id="kiyUDrObePyUyIK6tPTi-3" value="Wiring esp32 to ws2812b" style="whiteSpace=wrap;html=1;" vertex="1" parent="WIyWlLk6GJQsqaUBKTNV-1">
          <mxGeometry x="670" y="320" width="120" height="60" as="geometry" />
        </mxCell>
        <mxCell id="kiyUDrObePyUyIK6tPTi-5" value="Screw for standing legged 3/4 inches?" style="whiteSpace=wrap;html=1;" vertex="1" parent="WIyWlLk6GJQsqaUBKTNV-1">
          <mxGeometry x="670" y="380" width="120" height="60" as="geometry" />
        </mxCell>
        <mxCell id="kiyUDrObePyUyIK6tPTi-12" value="" style="edgeStyle=orthogonalEdgeStyle;rounded=0;orthogonalLoop=1;jettySize=auto;html=1;" edge="1" parent="WIyWlLk6GJQsqaUBKTNV-1" source="kiyUDrObePyUyIK6tPTi-9" target="kiyUDrObePyUyIK6tPTi-11">
          <mxGeometry relative="1" as="geometry" />
        </mxCell>
        <mxCell id="kiyUDrObePyUyIK6tPTi-19" value="" style="edgeStyle=orthogonalEdgeStyle;rounded=0;orthogonalLoop=1;jettySize=auto;html=1;" edge="1" parent="WIyWlLk6GJQsqaUBKTNV-1" source="kiyUDrObePyUyIK6tPTi-9" target="kiyUDrObePyUyIK6tPTi-18">
          <mxGeometry relative="1" as="geometry" />
        </mxCell>
        <mxCell id="kiyUDrObePyUyIK6tPTi-26" value="" style="edgeStyle=orthogonalEdgeStyle;rounded=0;orthogonalLoop=1;jettySize=auto;html=1;" edge="1" parent="WIyWlLk6GJQsqaUBKTNV-1" source="kiyUDrObePyUyIK6tPTi-9" target="kiyUDrObePyUyIK6tPTi-25">
          <mxGeometry relative="1" as="geometry" />
        </mxCell>
        <mxCell id="kiyUDrObePyUyIK6tPTi-9" value="Shop manager" style="whiteSpace=wrap;html=1;" vertex="1" parent="WIyWlLk6GJQsqaUBKTNV-1">
          <mxGeometry x="270" y="160" width="120" height="60" as="geometry" />
        </mxCell>
        <mxCell id="kiyUDrObePyUyIK6tPTi-14" value="" style="edgeStyle=orthogonalEdgeStyle;rounded=0;orthogonalLoop=1;jettySize=auto;html=1;" edge="1" parent="WIyWlLk6GJQsqaUBKTNV-1" source="kiyUDrObePyUyIK6tPTi-11" target="kiyUDrObePyUyIK6tPTi-13">
          <mxGeometry relative="1" as="geometry" />
        </mxCell>
        <mxCell id="kiyUDrObePyUyIK6tPTi-16" value="" style="edgeStyle=orthogonalEdgeStyle;rounded=0;orthogonalLoop=1;jettySize=auto;html=1;" edge="1" parent="WIyWlLk6GJQsqaUBKTNV-1" source="kiyUDrObePyUyIK6tPTi-11" target="kiyUDrObePyUyIK6tPTi-15">
          <mxGeometry relative="1" as="geometry" />
        </mxCell>
        <mxCell id="kiyUDrObePyUyIK6tPTi-11" value="Calculate the product need to buy" style="whiteSpace=wrap;html=1;" vertex="1" parent="WIyWlLk6GJQsqaUBKTNV-1">
          <mxGeometry x="270" y="20" width="120" height="60" as="geometry" />
        </mxCell>
        <mxCell id="kiyUDrObePyUyIK6tPTi-13" value="User must setting the period of delivery" style="whiteSpace=wrap;html=1;" vertex="1" parent="WIyWlLk6GJQsqaUBKTNV-1">
          <mxGeometry x="470" y="20" width="120" height="60" as="geometry" />
        </mxCell>
        <mxCell id="kiyUDrObePyUyIK6tPTi-15" value="Rate of sell" style="whiteSpace=wrap;html=1;" vertex="1" parent="WIyWlLk6GJQsqaUBKTNV-1">
          <mxGeometry x="470" y="80" width="120" height="60" as="geometry" />
        </mxCell>
        <mxCell id="kiyUDrObePyUyIK6tPTi-21" value="" style="edgeStyle=orthogonalEdgeStyle;rounded=0;orthogonalLoop=1;jettySize=auto;html=1;" edge="1" parent="WIyWlLk6GJQsqaUBKTNV-1" source="kiyUDrObePyUyIK6tPTi-18" target="kiyUDrObePyUyIK6tPTi-20">
          <mxGeometry relative="1" as="geometry" />
        </mxCell>
        <mxCell id="kiyUDrObePyUyIK6tPTi-18" value="Calculate the product not valid long time" style="whiteSpace=wrap;html=1;" vertex="1" parent="WIyWlLk6GJQsqaUBKTNV-1">
          <mxGeometry x="70" y="160" width="120" height="60" as="geometry" />
        </mxCell>
        <mxCell id="kiyUDrObePyUyIK6tPTi-20" value="Rate of sell" style="whiteSpace=wrap;html=1;" vertex="1" parent="WIyWlLk6GJQsqaUBKTNV-1">
          <mxGeometry x="-130" y="160" width="120" height="60" as="geometry" />
        </mxCell>
        <mxCell id="kiyUDrObePyUyIK6tPTi-25" value="Picture insertion" style="whiteSpace=wrap;html=1;" vertex="1" parent="WIyWlLk6GJQsqaUBKTNV-1">
          <mxGeometry x="470" y="160" width="120" height="60" as="geometry" />
        </mxCell>
      </root>
    </mxGraphModel>
  </diagram>
</mxfile>
